<mxfile host="app.diagrams.net" modified="2023-06-10T13:55:01.434Z" agent="Mozilla/5.0 (Macintosh; Intel Mac OS X 10_15_7) AppleWebKit/537.36 (KHTML, like Gecko) Chrome/110.0.0.0 Safari/537.36" version="21.3.8" etag="PFTMiF1l7YsYGi_g-Ky3" type="github">
  <diagram name="第 1 页" id="kVD-Gdx83QJC5muuzjAY">
    <mxGraphModel>
      <root>
        <mxCell id="0" />
        <mxCell id="1" parent="0" />
      </root>
    </mxGraphModel>
  </diagram>
</mxfile>
